<svg width="169" height="42" viewBox="0 0 169 42" fill="none" xmlns="http://www.w3.org/2000/svg">
<path d="M66.608 15.152V18.44H62.144V32H58.04V18.44H53.576V15.152H66.608ZM72.7717 20.84C73.2517 20.104 73.8517 19.528 74.5717 19.112C75.2917 18.68 76.0917 18.464 76.9717 18.464V22.808H75.8437C74.8197 22.808 74.0517 23.032 73.5397 23.48C73.0277 23.912 72.7717 24.68 72.7717 25.784V32H68.6677V18.608H72.7717V20.84ZM78.1173 25.28C78.1173 23.904 78.3733 22.696 78.8853 21.656C79.4133 20.616 80.1253 19.816 81.0213 19.256C81.9173 18.696 82.9173 18.416 84.0213 18.416C84.9653 18.416 85.7893 18.608 86.4933 18.992C87.2133 19.376 87.7653 19.88 88.1493 20.504V18.608H92.2533V32H88.1493V30.104C87.7493 30.728 87.1893 31.232 86.4693 31.616C85.7653 32 84.9413 32.192 83.9973 32.192C82.9093 32.192 81.9173 31.912 81.0213 31.352C80.1253 30.776 79.4133 29.968 78.8853 28.928C78.3733 27.872 78.1173 26.656 78.1173 25.28ZM88.1493 25.304C88.1493 24.28 87.8613 23.472 87.2853 22.88C86.7253 22.288 86.0373 21.992 85.2213 21.992C84.4053 21.992 83.7093 22.288 83.1333 22.88C82.5733 23.456 82.2933 24.256 82.2933 25.28C82.2933 26.304 82.5733 27.12 83.1333 27.728C83.7093 28.32 84.4053 28.616 85.2213 28.616C86.0373 28.616 86.7253 28.32 87.2853 27.728C87.8613 27.136 88.1493 26.328 88.1493 25.304ZM101.942 22.016H99.7344V32H95.6304V22.016H94.1424V18.608H95.6304V18.224C95.6304 16.576 96.1024 15.328 97.0464 14.48C97.9904 13.616 99.3744 13.184 101.198 13.184C101.502 13.184 101.726 13.192 101.87 13.208V16.688C101.086 16.64 100.534 16.752 100.214 17.024C99.8944 17.296 99.7344 17.784 99.7344 18.488V18.608H101.942V22.016ZM103.055 25.28C103.055 23.904 103.311 22.696 103.823 21.656C104.351 20.616 105.063 19.816 105.959 19.256C106.855 18.696 107.855 18.416 108.959 18.416C109.903 18.416 110.727 18.608 111.431 18.992C112.151 19.376 112.703 19.88 113.087 20.504V18.608H117.191V32H113.087V30.104C112.687 30.728 112.127 31.232 111.407 31.616C110.703 32 109.879 32.192 108.935 32.192C107.847 32.192 106.855 31.912 105.959 31.352C105.063 30.776 104.351 29.968 103.823 28.928C103.311 27.872 103.055 26.656 103.055 25.28ZM113.087 25.304C113.087 24.28 112.799 23.472 112.223 22.88C111.663 22.288 110.975 21.992 110.159 21.992C109.343 21.992 108.647 22.288 108.071 22.88C107.511 23.456 107.231 24.256 107.231 25.28C107.231 26.304 107.511 27.12 108.071 27.728C108.647 28.32 109.343 28.616 110.159 28.616C110.975 28.616 111.663 28.32 112.223 27.728C112.799 27.136 113.087 26.328 113.087 25.304ZM124.264 14.24V32H120.16V14.24H124.264ZM132.326 18.416C133.27 18.416 134.094 18.608 134.798 18.992C135.518 19.376 136.07 19.88 136.454 20.504V18.608H140.558V31.976C140.558 33.208 140.31 34.32 139.814 35.312C139.334 36.32 138.59 37.12 137.582 37.712C136.59 38.304 135.35 38.6 133.862 38.6C131.878 38.6 130.27 38.128 129.038 37.184C127.806 36.256 127.102 34.992 126.926 33.392H130.982C131.11 33.904 131.414 34.304 131.894 34.592C132.374 34.896 132.966 35.048 133.67 35.048C134.518 35.048 135.19 34.8 135.686 34.304C136.198 33.824 136.454 33.048 136.454 31.976V30.08C136.054 30.704 135.502 31.216 134.798 31.616C134.094 32 133.27 32.192 132.326 32.192C131.222 32.192 130.222 31.912 129.326 31.352C128.43 30.776 127.718 29.968 127.19 28.928C126.678 27.872 126.422 26.656 126.422 25.28C126.422 23.904 126.678 22.696 127.19 21.656C127.718 20.616 128.43 19.816 129.326 19.256C130.222 18.696 131.222 18.416 132.326 18.416ZM136.454 25.304C136.454 24.28 136.166 23.472 135.59 22.88C135.03 22.288 134.342 21.992 133.526 21.992C132.71 21.992 132.014 22.288 131.438 22.88C130.878 23.456 130.598 24.256 130.598 25.28C130.598 26.304 130.878 27.12 131.438 27.728C132.014 28.32 132.71 28.616 133.526 28.616C134.342 28.616 135.03 28.32 135.59 27.728C136.166 27.136 136.454 26.328 136.454 25.304ZM142.711 25.28C142.711 23.904 142.967 22.696 143.479 21.656C144.007 20.616 144.719 19.816 145.615 19.256C146.511 18.696 147.511 18.416 148.615 18.416C149.559 18.416 150.383 18.608 151.087 18.992C151.807 19.376 152.359 19.88 152.743 20.504V18.608H156.847V32H152.743V30.104C152.343 30.728 151.783 31.232 151.063 31.616C150.359 32 149.535 32.192 148.591 32.192C147.503 32.192 146.511 31.912 145.615 31.352C144.719 30.776 144.007 29.968 143.479 28.928C142.967 27.872 142.711 26.656 142.711 25.28ZM152.743 25.304C152.743 24.28 152.455 23.472 151.879 22.88C151.319 22.288 150.631 21.992 149.815 21.992C148.999 21.992 148.303 22.288 147.727 22.88C147.167 23.456 146.887 24.256 146.887 25.28C146.887 26.304 147.167 27.12 147.727 27.728C148.303 28.32 148.999 28.616 149.815 28.616C150.631 28.616 151.319 28.32 151.879 27.728C152.455 27.136 152.743 26.328 152.743 25.304ZM163.92 20.84C164.4 20.104 165 19.528 165.72 19.112C166.44 18.68 167.24 18.464 168.12 18.464V22.808H166.992C165.968 22.808 165.2 23.032 164.688 23.48C164.176 23.912 163.92 24.68 163.92 25.784V32H159.816V18.608H163.92V20.84Z" fill="#233348"/>
<circle cx="20.5" cy="20.5" r="20.5" fill="#458FF6"/>
<path d="M27.742 15.748V19.31H22.906V34H18.46V19.31H13.624V15.748H27.742Z" fill="white"/>
</svg>
